<svg width="30" height="34" viewBox="0 0 30 34" fill="none" xmlns="http://www.w3.org/2000/svg">
<g clip-path="url(#clip0)">
<path d="M17.2432 29.5574L15.7566 31.0317C15.1271 31.6559 14.1093 31.6559 13.4865 31.0317L0.468634 18.1289C-0.16083 17.5047 -0.16083 16.4953 0.468634 15.8778L13.4865 2.96838C14.116 2.34416 15.1338 2.34416 15.7566 2.96838L17.2432 4.4426C17.8793 5.07346 17.866 6.10275 17.2164 6.72033L9.14721 14.3438H28.3927C29.2834 14.3438 29.9999 15.0543 29.9999 15.9375V18.0625C29.9999 18.9457 29.2834 19.6563 28.3927 19.6563H9.14721L17.2164 27.2797C17.8727 27.8973 17.886 28.9266 17.2432 29.5574Z" fill="white"/>
</g>
<defs>
<clipPath id="clip0">
<rect width="30" height="34" fill="white"/>
</clipPath>
</defs>
</svg>
